<?xml version="1.0" encoding="utf-8"?>
<!-- Generator: Adobe Illustrator 18.0.0, SVG Export Plug-In . SVG Version: 6.00 Build 0)  -->
<!DOCTYPE svg PUBLIC "-//W3C//DTD SVG 1.1//EN" "http://www.w3.org/Graphics/SVG/1.1/DTD/svg11.dtd">
<svg version="1.1" xmlns="http://www.w3.org/2000/svg" xmlns:xlink="http://www.w3.org/1999/xlink" x="0px" y="0px" width="800px"
	 height="600px" viewBox="0 0 800 600" enable-background="new 0 0 800 600" xml:space="preserve">
<g id="Background">
	<rect fill="#F1F2F2" width="800" height="600"/>
	<rect y="508.6" fill="#D1D3D4" width="800" height="91.4"/>
	<g>
		<path fill="#A97C50" d="M140.4,331.4V71.1c0-5.5,4.5-10,10-10h499.1c5.5,0,10,4.5,10,10v260.3c0,5.5-4.5,10-10,10H150.4
			C144.9,341.4,140.4,337,140.4,331.4z"/>
		<rect x="150.4" y="71.1" fill="#006838" width="499.1" height="260.3"/>
	</g>
	<ellipse fill="#A7A9AC" cx="522.5" cy="539.9" rx="258.2" ry="13.2"/>
	<ellipse fill="#A7A9AC" cx="168.2" cy="539.9" rx="96.2" ry="13.2"/>
	<ellipse fill="#A7A9AC" cx="83.4" cy="523" rx="65.4" ry="13.2"/>
	<ellipse fill="#A7A9AC" cx="721.1" cy="523" rx="65.4" ry="13.2"/>
	<g>
		<g>
			<g>
				<path fill="#D7DF23" d="M58.8,448.3c0,0-1.5-17.8-16.2-35.4s-4.6-31.4,13.3-20.8s24.7,44.4,26.5,55.1L58.8,448.3z"/>
				<path fill="#8DC63F" d="M79.1,431.7c-0.1-0.2-0.1-0.4-0.2-0.6c-2.2,3.8-4.9,7.6-7.8,9.8c-1.1-4-2.4-7.9-3.7-11.4
					c2.6-3.2,4.2-10.2,5.1-16.3c-0.1-0.3-0.2-0.5-0.4-0.8c-0.9,6.1-2.5,13.3-5,16.6c-2.6-6.8-5.5-12.7-8.4-17.8
					c2-3.2,3-8.9,3.5-13.8c-0.1-0.1-0.3-0.3-0.4-0.4c-0.5,4.9-1.4,10.6-3.3,13.8c-2.6-4.5-5.2-8.2-7.5-11.4c0.8-2.1,1-5.8,1-9.2
					c-0.2-0.1-0.3-0.1-0.4-0.2c0,3.3-0.2,6.9-0.9,8.9c0,0-0.1-0.1-0.1-0.1c-3.2-4.2-6.2-7.5-8.8-10.1c-0.2,0-0.3,0.1-0.5,0.1
					c2.6,2.6,5.7,5.9,8.9,10.2c0.1,0.1,0.2,0.2,0.3,0.4c0,0.1-0.1,0.2-0.1,0.3l0.4,0.2c0,0,0,0,0-0.1c0.7,0.9,1.4,1.9,2.2,3
					c-4.6,1.2-11.3,1-16.2,0.6c0.1,0.2,0.1,0.3,0.2,0.5c2.1,0.2,4.5,0.3,6.9,0.3c3.3,0,6.7-0.2,9.4-0.9c2.7,4,5.6,8.7,8.4,14.2
					c-3.6,1.3-10,1.1-15.1,0.7c0.1,0.2,0.2,0.3,0.3,0.5c2,0.2,4.1,0.3,6.2,0.3c3.3,0,6.5-0.3,8.7-1.1c2.2,4.5,4.4,9.6,6.3,15.2
					c-5.2-0.4-11-2.5-15.7-4.7c0.1,0.2,0.2,0.4,0.3,0.6c4.7,2.2,10.4,4.2,15.5,4.5c1.2,3.5,2.3,7.3,3.3,11.3
					c-4.6,1-9.6,0.2-13.6-0.9c0,0.2,0.1,0.3,0.1,0.5c2.7,0.7,5.9,1.3,9,1.3c1.5,0,3.1-0.1,4.6-0.5c0.2,0.8,0.4,1.7,0.6,2.6l0.4,0
					c-0.5-2.2-1-4.2-1.5-6.3C74.1,439.1,76.8,435.4,79.1,431.7z"/>
			</g>
			<g>
				<path fill="#8DC63F" d="M73,446.6c0,0,3.8-53.6,27.8-59.9c24-6.3-2.7,61.5-2.7,61.5L73,446.6z"/>
				<path fill="#39B54A" d="M109.9,407.6c0-0.2,0.1-0.4,0.1-0.5c-7,3.8-15.3,6.1-17.2,6.6c1.8-5.9,3.8-11.8,6.1-17.3
					c0.9-0.2,5.9-1.2,11.2-4.2c0-0.1-0.1-0.3-0.1-0.4c-4.8,2.8-9.5,3.9-10.9,4.2c1.4-3.4,3-6.6,4.6-9.5c-0.2,0-0.3,0-0.5,0
					c-2.3,4.1-4.4,8.8-6.3,13.7c-2.4-2.8-4-5.7-5-8.2c-0.1,0.1-0.2,0.2-0.3,0.3c1.1,2.6,2.8,5.5,5.2,8.4c-1.2,3.3-2.4,6.7-3.5,10.1
					c-3.2-3.4-5.8-7.5-7.6-10.9c-0.1,0.1-0.2,0.3-0.3,0.4c1.9,3.4,4.5,7.5,7.7,10.9c-0.8,2.5-1.5,4.9-2.2,7.4
					c-3.7-1.9-7.1-6.7-9.4-10.4c-0.1,0.2-0.1,0.4-0.2,0.5c2.3,3.8,5.7,8.4,9.5,10.3c-1.2,4.2-2.2,8.3-3.1,12.2
					c-4.4-1.5-8.5-4.6-11.2-7.1c0,0.2-0.1,0.3-0.1,0.5c2.7,2.5,6.8,5.6,11.2,7c-0.9,3.7-1.6,7.1-2.2,10.1c-3.7-1.2-7.9-4.1-11.1-6.6
					c0,0.2-0.1,0.3-0.1,0.5c3.2,2.5,7.4,5.4,11.1,6.5c-0.4,2-0.7,3.7-1,5.2l0.4,0c0.1-0.4,0.1-0.8,0.2-1.2c1.2-0.2,8.4-1.3,15.4-4.1
					c0.1-0.2,0.1-0.4,0.2-0.6c-6.8,2.8-13.9,4-15.5,4.2c0.6-3,1.3-6.7,2.3-11c1.3,0,8.7-0.2,16.2-2c0.1-0.2,0.1-0.3,0.2-0.5
					c-7.3,1.9-14.7,2-16.2,2.1c0.7-3.4,1.6-7,2.6-10.8c0.4,0,1.2,0,2.3,0c3.1,0,8.5-0.2,14.2-1.1c0-0.2,0.1-0.3,0.1-0.5
					c-7.7,1.3-15,1.2-16.5,1.1c0.8-2.9,1.6-6,2.5-9C93.9,413.9,102.5,411.6,109.9,407.6z"/>
			</g>
			<g>
				<path fill="#39B54A" d="M86.4,444.6c0,0,5.7-17.2,27-33.9s39.7-4.6,24,9.4s-24,28.2-24,28.2L86.4,444.6z"/>
				<path fill="#009444" d="M127.8,411c0.3,0,1.1,0.1,2.3,0.1c3.1,0,8.5-0.3,13-1.9c0-0.2,0-0.3-0.1-0.5c-5.6,2.1-12.7,2-14.8,1.9
					c3.3-2.6,6.8-5,10.4-6.8c-0.2-0.1-0.4-0.2-0.5-0.2c-6,3.1-11.5,7.4-16.4,12.2c0-3.6,1-7.7,2-11.1c-0.2,0.1-0.4,0.1-0.5,0.2
					c-1.1,3.5-2,7.6-2,11.3c-2.3,2.2-4.4,4.6-6.4,6.9c-1.2-3.4-1.7-8-2-12c-0.1,0.1-0.3,0.2-0.4,0.3c0.3,4.1,0.9,8.7,2.1,12
					c-2.4,2.9-4.7,5.8-6.7,8.5c-0.8-5.8-0.6-12.1-0.4-16.3c-0.2,0.1-0.3,0.3-0.5,0.4c-0.3,4.3-0.4,10.7,0.5,16.4
					c-1.8,2.5-3.4,4.9-4.8,7c-3.1-3.9-4.8-8.9-5.6-12.9c-0.1,0.1-0.2,0.3-0.4,0.4c0.9,4.1,2.6,9,5.7,12.8c-0.9,1.4-1.7,2.7-2.4,3.9
					c-3.1-2.7-6-6.8-8.1-10.1c-0.1,0.1-0.2,0.3-0.3,0.4c2.1,3.3,5.1,7.3,8.1,10c-0.4,0.8-0.8,1.4-1.2,2.1l0.5,0.1
					c0.3-0.6,0.7-1.2,1.1-2c0.9,0.1,5.5,0.8,11.1,0.8c1.3,0,2.7,0,4-0.1c0.1-0.2,0.2-0.3,0.3-0.5c-7.1,0.5-13.7-0.4-15.2-0.6
					c1.3-2.1,2.9-4.7,4.8-7.5l0,0.2c0.1,0,7.3,1.8,14.9,1.9c0.1-0.1,0.2-0.3,0.3-0.4c-7.2-0.1-14.1-1.7-15-1.9
					c1.6-2.4,3.5-5,5.6-7.7c1.1,0.2,7.3,1.3,14.1,1.3c0.8,0,1.6,0,2.3-0.1c0.1-0.2,0.3-0.3,0.4-0.5c-7.4,0.4-14.8-0.9-16.6-1.2
					c2.3-2.9,4.7-5.9,7.4-8.7c0.6,0.1,2.6,0.3,5.6,0.3c4.2,0,10.1-0.4,15.7-2.3c0.2-0.2,0.3-0.4,0.5-0.6c-9,3.2-19.1,2.5-21.4,2.3
					C121.8,416.2,124.7,413.4,127.8,411z"/>
			</g>
			<g>
				<path fill="#009444" d="M80.4,444.6c0,0-5.7-17.2-27-33.9s-39.7-4.6-24,9.4s24,28.2,24,28.2L80.4,444.6z"/>
				<path fill="#8DC63F" d="M39,411c-0.3,0-1.1,0.1-2.3,0.1c-3.1,0-8.5-0.3-13-1.9c0-0.2,0-0.3,0.1-0.5c5.6,2.1,12.7,2,14.8,1.9
					c-3.3-2.6-6.8-5-10.4-6.8c0.2-0.1,0.4-0.2,0.5-0.2c6,3.1,11.5,7.4,16.4,12.2c0-3.6-1-7.7-2-11.1c0.2,0.1,0.4,0.1,0.5,0.2
					c1.1,3.5,2,7.6,2,11.3c2.3,2.2,4.4,4.6,6.4,6.9c1.2-3.4,1.7-8,2-12c0.1,0.1,0.3,0.2,0.4,0.3c-0.3,4.1-0.9,8.7-2.1,12
					c2.4,2.9,4.7,5.8,6.7,8.5c0.8-5.8,0.6-12.1,0.4-16.3c0.2,0.1,0.3,0.3,0.5,0.4c0.3,4.3,0.4,10.7-0.5,16.4c1.8,2.5,3.4,4.9,4.8,7
					c3.1-3.9,4.8-8.9,5.6-12.9c0.1,0.1,0.2,0.3,0.4,0.4c-0.9,4.1-2.6,9-5.7,12.8c0.9,1.4,1.7,2.7,2.4,3.9c3.1-2.7,6-6.8,8.1-10.1
					c0.1,0.1,0.2,0.3,0.3,0.4c-2.1,3.3-5.1,7.3-8.1,10c0.4,0.8,0.8,1.4,1.2,2.1l-0.5,0.1c-0.3-0.6-0.7-1.2-1.1-2
					c-0.9,0.1-5.5,0.8-11.1,0.8c-1.3,0-2.7,0-4-0.1c-0.1-0.2-0.2-0.3-0.3-0.5c7.1,0.5,13.7-0.4,15.2-0.6c-1.3-2.1-2.9-4.7-4.8-7.5
					l0,0.2c-0.1,0-7.3,1.8-14.9,1.9c-0.1-0.1-0.2-0.3-0.3-0.4c7.2-0.1,14.1-1.7,15-1.9c-1.6-2.4-3.5-5-5.6-7.7
					c-1.1,0.2-7.3,1.3-14.1,1.3c-0.8,0-1.6,0-2.3-0.1c-0.1-0.2-0.3-0.3-0.4-0.5c7.4,0.4,14.8-0.9,16.6-1.2c-2.3-2.9-4.7-5.9-7.4-8.7
					c-0.6,0.1-2.6,0.3-5.6,0.3c-4.2,0-10.1-0.4-15.7-2.3c-0.2-0.2-0.3-0.4-0.5-0.6c9,3.2,19.1,2.5,21.4,2.3
					C44.9,416.2,42,413.4,39,411z"/>
			</g>
		</g>
		<polygon fill="#D1D3D4" points="39,444.6 122.8,444.6 111.9,523 49,523 		"/>
		<rect x="39" y="444.6" fill="#E6E7E8" width="83.8" height="18.1"/>
	</g>
	<g>
		<g>
			<g>
				<path fill="#D7DF23" d="M696.5,448.3c0,0-1.5-17.8-16.2-35.4s-4.6-31.4,13.3-20.8s24.7,44.4,26.5,55.1L696.5,448.3z"/>
				<path fill="#8DC63F" d="M716.8,431.7c-0.1-0.2-0.1-0.4-0.2-0.6c-2.2,3.8-4.9,7.6-7.8,9.8c-1.1-4-2.4-7.9-3.7-11.4
					c2.6-3.2,4.2-10.2,5.1-16.3c-0.1-0.3-0.2-0.5-0.4-0.8c-0.9,6.1-2.5,13.3-5,16.6c-2.6-6.8-5.5-12.7-8.4-17.8
					c2-3.2,3-8.9,3.5-13.8c-0.1-0.1-0.3-0.3-0.4-0.4c-0.5,4.9-1.4,10.6-3.3,13.8c-2.6-4.5-5.2-8.2-7.5-11.4c0.8-2.1,1-5.8,1-9.2
					c-0.2-0.1-0.3-0.1-0.4-0.2c0,3.3-0.2,6.9-0.9,8.9c0,0-0.1-0.1-0.1-0.1c-3.2-4.2-6.2-7.5-8.8-10.1c-0.2,0-0.3,0.1-0.5,0.1
					c2.6,2.6,5.7,5.9,8.9,10.2c0.1,0.1,0.2,0.2,0.3,0.4c0,0.1-0.1,0.2-0.1,0.3l0.4,0.2c0,0,0,0,0-0.1c0.7,0.9,1.4,1.9,2.2,3
					c-4.6,1.2-11.3,1-16.2,0.6c0.1,0.2,0.1,0.3,0.2,0.5c2.1,0.2,4.5,0.3,6.9,0.3c3.3,0,6.7-0.2,9.4-0.9c2.7,4,5.6,8.7,8.4,14.2
					c-3.6,1.3-10,1.1-15.1,0.7c0.1,0.2,0.2,0.3,0.3,0.5c2,0.2,4.1,0.3,6.2,0.3c3.3,0,6.5-0.3,8.7-1.1c2.2,4.5,4.4,9.6,6.3,15.2
					c-5.2-0.4-11-2.5-15.7-4.7c0.1,0.2,0.2,0.4,0.3,0.6c4.7,2.2,10.4,4.2,15.5,4.5c1.2,3.5,2.3,7.3,3.3,11.3
					c-4.6,1-9.6,0.2-13.6-0.9c0,0.2,0.1,0.3,0.1,0.5c2.7,0.7,5.9,1.3,9,1.3c1.5,0,3.1-0.1,4.6-0.5c0.2,0.8,0.4,1.7,0.6,2.6l0.4,0
					c-0.5-2.2-1-4.2-1.5-6.3C711.9,439.1,714.6,435.4,716.8,431.7z"/>
			</g>
			<g>
				<path fill="#8DC63F" d="M710.7,446.6c0,0,3.8-53.6,27.8-59.9c24-6.3-2.7,61.5-2.7,61.5L710.7,446.6z"/>
				<path fill="#39B54A" d="M747.7,407.6c0-0.2,0.1-0.4,0.1-0.5c-7,3.8-15.3,6.1-17.2,6.6c1.8-5.9,3.8-11.8,6.1-17.3
					c0.9-0.2,5.9-1.2,11.2-4.2c0-0.1-0.1-0.3-0.1-0.4c-4.8,2.8-9.5,3.9-10.9,4.2c1.4-3.4,3-6.6,4.6-9.5c-0.2,0-0.3,0-0.5,0
					c-2.3,4.1-4.4,8.8-6.3,13.7c-2.4-2.8-4-5.7-5-8.2c-0.1,0.1-0.2,0.2-0.3,0.3c1.1,2.6,2.8,5.5,5.2,8.4c-1.2,3.3-2.4,6.7-3.5,10.1
					c-3.2-3.4-5.8-7.5-7.6-10.9c-0.1,0.1-0.2,0.3-0.3,0.4c1.9,3.4,4.5,7.5,7.7,10.9c-0.8,2.5-1.5,4.9-2.2,7.4
					c-3.7-1.9-7.1-6.7-9.4-10.4c-0.1,0.2-0.1,0.4-0.2,0.5c2.3,3.8,5.7,8.4,9.5,10.3c-1.2,4.2-2.2,8.3-3.1,12.2
					c-4.4-1.5-8.5-4.6-11.2-7.1c0,0.2-0.1,0.3-0.1,0.5c2.7,2.5,6.8,5.6,11.2,7c-0.9,3.7-1.6,7.1-2.2,10.1c-3.7-1.2-7.9-4.1-11.1-6.6
					c0,0.2-0.1,0.3-0.1,0.5c3.2,2.5,7.4,5.4,11.1,6.5c-0.4,2-0.7,3.7-1,5.2l0.4,0c0.1-0.4,0.1-0.8,0.2-1.2c1.2-0.2,8.4-1.3,15.4-4.1
					c0.1-0.2,0.1-0.4,0.2-0.6c-6.8,2.8-13.9,4-15.5,4.2c0.6-3,1.3-6.7,2.3-11c1.3,0,8.7-0.2,16.2-2c0.1-0.2,0.1-0.3,0.2-0.5
					c-7.3,1.9-14.7,2-16.2,2.1c0.7-3.4,1.6-7,2.6-10.8c0.4,0,1.2,0,2.3,0c3.1,0,8.5-0.2,14.2-1.1c0-0.2,0.1-0.3,0.1-0.5
					c-7.7,1.3-15,1.2-16.5,1.1c0.8-2.9,1.6-6,2.5-9C731.7,413.9,740.3,411.6,747.7,407.6z"/>
			</g>
			<g>
				<path fill="#39B54A" d="M724.1,444.6c0,0,5.7-17.2,27-33.9s39.7-4.6,24,9.4c-15.7,14-24,28.2-24,28.2L724.1,444.6z"/>
				<path fill="#009444" d="M765.5,411c0.3,0,1.1,0.1,2.3,0.1c3.1,0,8.5-0.3,13-1.9c0-0.2,0-0.3-0.1-0.5c-5.6,2.1-12.7,2-14.8,1.9
					c3.3-2.6,6.8-5,10.4-6.8c-0.2-0.1-0.4-0.2-0.5-0.2c-6,3.1-11.5,7.4-16.4,12.2c0-3.6,1-7.7,2-11.1c-0.2,0.1-0.4,0.1-0.5,0.2
					c-1.1,3.5-2,7.6-2,11.3c-2.3,2.2-4.4,4.6-6.4,6.9c-1.2-3.4-1.7-8-2-12c-0.1,0.1-0.3,0.2-0.4,0.3c0.3,4.1,0.9,8.7,2.1,12
					c-2.4,2.9-4.7,5.8-6.7,8.5c-0.8-5.8-0.6-12.1-0.4-16.3c-0.2,0.1-0.3,0.3-0.5,0.4c-0.3,4.3-0.4,10.7,0.5,16.4
					c-1.8,2.5-3.4,4.9-4.8,7c-3.1-3.9-4.8-8.9-5.6-12.9c-0.1,0.1-0.2,0.3-0.4,0.4c0.9,4.1,2.6,9,5.7,12.8c-0.9,1.4-1.7,2.7-2.4,3.9
					c-3.1-2.7-6-6.8-8.1-10.1c-0.1,0.1-0.2,0.3-0.3,0.4c2.1,3.3,5.1,7.3,8.1,10c-0.4,0.8-0.8,1.4-1.2,2.1l0.5,0.1
					c0.3-0.6,0.7-1.2,1.1-2c0.9,0.1,5.5,0.8,11.1,0.8c1.3,0,2.7,0,4-0.1c0.1-0.2,0.2-0.3,0.3-0.5c-7.1,0.5-13.7-0.4-15.2-0.6
					c1.3-2.1,2.9-4.7,4.8-7.5l0,0.2c0.1,0,7.3,1.8,14.9,1.9c0.1-0.1,0.2-0.3,0.3-0.4c-7.2-0.1-14.1-1.7-15-1.9
					c1.6-2.4,3.5-5,5.6-7.7c1.1,0.2,7.3,1.3,14.1,1.3c0.8,0,1.6,0,2.3-0.1c0.1-0.2,0.3-0.3,0.4-0.5c-7.4,0.4-14.8-0.9-16.6-1.2
					c2.3-2.9,4.7-5.9,7.4-8.7c0.6,0.1,2.6,0.3,5.6,0.3c4.2,0,10.1-0.4,15.7-2.3c0.2-0.2,0.3-0.4,0.5-0.6c-9,3.2-19.1,2.5-21.4,2.3
					C759.6,416.2,762.5,413.4,765.5,411z"/>
			</g>
			<g>
				<path fill="#009444" d="M718.1,444.6c0,0-5.7-17.2-27-33.9c-21.3-16.6-39.7-4.6-24,9.4s24,28.2,24,28.2L718.1,444.6z"/>
				<path fill="#8DC63F" d="M676.7,411c-0.3,0-1.1,0.1-2.3,0.1c-3.1,0-8.5-0.3-13-1.9c0-0.2,0-0.3,0.1-0.5c5.6,2.1,12.7,2,14.8,1.9
					c-3.3-2.6-6.8-5-10.4-6.8c0.2-0.1,0.4-0.2,0.5-0.2c6,3.1,11.5,7.4,16.4,12.2c0-3.6-1-7.7-2-11.1c0.2,0.1,0.4,0.1,0.5,0.2
					c1.1,3.5,2,7.6,2,11.3c2.3,2.2,4.4,4.6,6.4,6.9c1.2-3.4,1.7-8,2-12c0.1,0.1,0.3,0.2,0.4,0.3c-0.3,4.1-0.9,8.7-2.1,12
					c2.4,2.9,4.7,5.8,6.7,8.5c0.8-5.8,0.6-12.1,0.4-16.3c0.2,0.1,0.3,0.3,0.5,0.4c0.3,4.3,0.4,10.7-0.5,16.4c1.8,2.5,3.4,4.9,4.8,7
					c3.1-3.9,4.8-8.9,5.6-12.9c0.1,0.1,0.2,0.3,0.4,0.4c-0.9,4.1-2.6,9-5.7,12.8c0.9,1.4,1.7,2.7,2.4,3.9c3.1-2.7,6-6.8,8.1-10.1
					c0.1,0.1,0.2,0.3,0.3,0.4c-2.1,3.3-5.1,7.3-8.1,10c0.4,0.8,0.8,1.4,1.2,2.1l-0.5,0.1c-0.3-0.6-0.7-1.2-1.1-2
					c-0.9,0.1-5.5,0.8-11.1,0.8c-1.3,0-2.7,0-4-0.1c-0.1-0.2-0.2-0.3-0.3-0.5c7.1,0.5,13.7-0.4,15.2-0.6c-1.3-2.1-2.9-4.7-4.8-7.5
					l0,0.2c-0.1,0-7.3,1.8-14.9,1.9c-0.1-0.1-0.2-0.3-0.3-0.4c7.2-0.1,14.1-1.7,15-1.9c-1.6-2.4-3.5-5-5.6-7.7
					c-1.1,0.2-7.3,1.3-14.1,1.3c-0.8,0-1.6,0-2.3-0.1c-0.1-0.2-0.3-0.3-0.4-0.5c7.4,0.4,14.8-0.9,16.6-1.2c-2.3-2.9-4.7-5.9-7.4-8.7
					c-0.6,0.1-2.6,0.3-5.6,0.3c-4.2,0-10.1-0.4-15.7-2.3c-0.2-0.2-0.3-0.4-0.5-0.6c9,3.2,19.1,2.5,21.4,2.3
					C682.7,416.2,679.8,413.4,676.7,411z"/>
			</g>
		</g>
		<polygon fill="#D1D3D4" points="676.8,444.6 760.6,444.6 749.6,523 686.8,523 		"/>
		<rect x="676.8" y="444.6" fill="#E6E7E8" width="83.8" height="18.1"/>
	</g>
</g>
<g id="Object">
	<g>
		<path fill="#FFDE17" d="M641.4,270.1c0,0-10.3,3.8-11.8,15.6c-1.4,11.8-6.8,79-6.8,79h59.9l-2.3-46.5l-10.9-41.9L641.4,270.1z"/>
		<g>
			<path fill="#F9D4A2" d="M56.1,188.2c0,0,5.7-4.9,8.1-10.4c2.4-5.5-6.8,2.2-8.3,1.8c-1.4-0.4,5-16.7,0.3-18.1
				c-4.6-1.4-13.6,9.5-12.1,27.7L56.1,188.2z"/>
			<path fill="#27AAE1" d="M318.9,232c0,0-49.2,23.6-61.2,22.9c-10.1-0.6-46.8-15.8-62-20.6c-1.4-0.6-2.9-1.1-4.6-1.5h0l0,0
				c-15.8-4.1-44.1-2.8-62.3,1c-24.5,4-56,14.8-59.4,11.5c-5.5-5.5-12.7-57.2-12.7-57.2l-12.4,1.3c0,0-21.8,52.9,5,79.6
				c12.7,12.7,39.6,17.5,63.5,14c3.7,23,9.4,50.1,9.4,68.6H201c0,0,5.5-35.5,6.2-68c21,8.8,37.4,10.1,55.3,6
				c29.3-6.7,61.6-46.6,61.6-46.6L318.9,232z"/>
			<path fill="#A7A9AC" d="M191,232.8L191,232.8c-15.8-4.1-44.1-2.8-62.3,1c-5.3,0.9-11,2.1-16.6,3.4l0,0c0,0,4.8,25.1,0.6,45.7
				c3.7,23,9.4,50.1,9.4,68.6H201c0,0,5.5-35.5,6.2-68c0,0,0.5-27.1-2.3-46.3c-3.7-1.2-6.8-2.2-9.1-2.9
				C194.3,233.7,192.7,233.2,191,232.8z"/>
			<g>
				<polygon fill="#F9D4A2" points="151.4,193.7 151.4,229.2 137,232.1 164.8,247.7 183.3,230.9 172.1,228.7 169.6,202.7 				"/>
				<path fill="#F9D4A2" d="M197.6,169.3c0,0,2.8,35.6-2.2,49s-36.7,10-48.4-27c-11.7-37,8.9-43.1,27.8-43.1
					S196.6,159.9,197.6,169.3z"/>
				<g>
					<g>
						<g>
							<circle fill="#4E4F51" cx="170.6" cy="180.9" r="2.5"/>
						</g>
						<g>
							<circle fill="#4E4F51" cx="193.5" cy="179.4" r="2.5"/>
						</g>
					</g>
				</g>
				<path fill="#F3A387" d="M185.7,179.7c1,6.9,6.7,8.8,8.3,13c1.6,4.1-3.9,7.1-8.3,0C181.5,185.9,185.7,179.7,185.7,179.7z"/>
				<path fill="#4E4F51" d="M151.4,196.6c0,0-1.1-19.9,5-35.5c0,0,33.3-5.5,41.9,18.6c0,0,7.9-13.7,4.6-23.2
					c-3.3-9.5-8.3-6.9-19.7-13.2s-21.8-13-34.4,8.9c0,0-11.9,2.3-11.9,15.9c0,26,0,37.5,15.2,39L151.4,196.6z"/>
				<path fill="#F9D4A2" d="M154.2,197.1c0,0-12.2-16.7-16.7-5.6c-4.5,11.1,18.9,13.9,18.9,13.9L154.2,197.1z"/>
				<path fill="#4E4F51" d="M156.4,161.1c0,0-2.4,19.4,0,32.6c2.4,13.1,8.7,3.8,20.2,2.9s19.2,1.5,21.3,7s1.8,27.8-10.7,27.8
					c-12.5,0-39-13.3-40.6-43S156.4,161.1,156.4,161.1z"/>
				<path fill="#FFFFFF" d="M185.2,201.3c-5.8,0.5-11.5-3.3-12.9,0c-1.4,3.3,4.4,5.9,8.5,5.9C188.2,207.2,188.7,201,185.2,201.3z"/>
			</g>
			<path fill="#81481E" d="M110.2,530.2c0,0-5.1,11.5-3.5,13.4s32.6,4.5,43.5-1.5c10.8-6-26-10.2-26-10.2L110.2,530.2z"/>
			<path fill="#81481E" d="M167.2,530.2c0,0-5.1,11.5-3.5,13.4s32.6,4.5,43.5-1.5c10.8-6-26-10.2-26-10.2L167.2,530.2z"/>
			<path fill="#414042" d="M122.1,351.5c0,0-7,69.5-9.6,109.5s-2.8,71.6-2.8,71.6h19.5c0,0,28.7-144.9,35-144.9
				c6.7,0,2.5,144.9,2.5,144.9h17.2c0,0,24.3-112.4,17.1-181.2H122.1z"/>
			<path fill="#F9D4A2" d="M318.9,232c0,0,3.9-8.7,7-9.9c3-1.3,2.3,3.2,3.7,3.2s7.1-2,7.5,0.4c1.4,8.3-1.4,13.4-13,17.1L318.9,232z"
				/>
			<polygon fill="#594A42" points="381.1,171.1 380,170.2 303.5,255.1 305.9,257.2 			"/>
		</g>
		<g>
			<g>
				<g>
					<g>
						<path fill="#414042" d="M513.7,545.8c-0.9,0-1.8-0.6-2.1-1.5l-29.8-77.6h-30.5l18.3,75.6c0.3,1.2-0.5,2.4-1.7,2.7
							c-1.2,0.3-2.4-0.5-2.7-1.7l-19.7-81.2h39.3l31,80.5c0.4,1.2-0.1,2.5-1.3,2.9C514.3,545.8,514,545.8,513.7,545.8z"/>
					</g>
					<g>
						<path fill="#414042" d="M400.2,545.4c-0.3,0-0.5,0-0.8-0.2c-1.2-0.4-1.8-1.8-1.3-2.9l31-80.5h39.3l-19.7,81.2
							c-0.3,1.2-1.5,2-2.7,1.7c-1.2-0.3-2-1.5-1.7-2.7l18.3-75.6h-30.5L402.4,544C402,544.9,401.2,545.4,400.2,545.4z"/>
					</g>
				</g>
				<g>
					<path fill="#FFDE17" d="M522.4,379h-68.5c-2.6,0-5.1,0.6-7.4,1.8c-5.6,3-14.3,10.9-14.3,30.6c0,22.9,3,36.7-5.4,49.5
						c-12.5,19-50.4-2.4-62.7,13.8c-0.9,1.2,0,2.9,1.5,2.9h66.3c1,0,1.9-0.5,2.4-1.4c11.1-19,50.9,4.3,63.7-15.3
						c8.4-12.8,5.4-26.7,5.4-49.5C503.3,382.2,522.4,379,522.4,379z"/>
					<g>
						<path fill="#FBB040" d="M433,477.5c-0.3,0-0.7-0.1-1-0.2c-1.1-0.6-1.6-1.9-1-3c5.7-11.7,20-10.7,33.8-9.7
							c12.9,0.9,25.1,1.8,30.8-6.5c6.1-8.9,5.8-18.2,5.3-32.4c-0.1-4-0.3-8.6-0.3-13.5c0-29.4,20.8-33.1,21-33.1
							c1.2-0.2,2.4,0.6,2.6,1.9c0.2,1.2-0.6,2.4-1.9,2.6c-0.7,0.1-17.2,3.3-17.2,28.6c0,4.8,0.1,9.2,0.3,13.3
							c0.5,14.6,0.8,25.1-6.1,35.2c-7.2,10.5-21.3,9.4-34.9,8.4c-12.9-0.9-25-1.8-29.4,7.1C434.6,477,433.8,477.5,433,477.5z"/>
					</g>
				</g>
			</g>
			<g>
				<rect x="291.8" y="404.1" fill="#414042" width="7.4" height="141.8"/>
				<rect x="365.3" y="404.1" fill="#414042" width="7.4" height="141.8"/>
			</g>
			<g>
				<path fill="#39B54A" d="M416.3,340.8c-14.3,7.1-39.6,33.5-39.8,45.9c-0.4,24,43.2-3.5,52.5-21.8
					C438.3,346.7,429.4,334.3,416.3,340.8z"/>
				<path fill="#39B54A" d="M464.9,333.8c10.9-0.5,37.4,5.1,43.1,2.6c5.7-2.5,12.8-38.6,12.8-38.6l9,1.1c0,0,6.2,41.1-8.1,55.4
					c-14.3,14.3-52.7,12.5-60.2,4.6C454.2,351.2,456.3,334.2,464.9,333.8z"/>
				<path fill="#39B54A" d="M482.8,340.3c1.3-12-54.7-6.7-64.4,0.5c-9.7,7.2-12.4,60.6-4.7,87.7h54.9
					C468.5,428.5,479.1,374.3,482.8,340.3z"/>
				<path fill="#F9D4A2" d="M453.2,306.3l0,27.3l9.8,0c0,0-7.1,13.3-20,13.7c-12.9,0.4-14-10.7-14-10.7l8.5-2.5l1.9-21L453.2,306.3z
					"/>
				<g>
					<path fill="#F9D4A2" d="M419,287.7c0,0-2.1,27.1,1.7,37.2c3.8,10.2,27.9,7.6,36.8-20.5c8.9-28.1-6.8-32.8-21.2-32.8
						S419.8,280.6,419,287.7z"/>
					<ellipse fill="#F3B4B9" cx="421.1" cy="303.2" rx="3.8" ry="3.1"/>
					<g>
						<g>
							<g>
								<circle fill="#4E4F51" cx="440.3" cy="295.6" r="1.9"/>
							</g>
							<g>
								<circle fill="#4E4F51" cx="422.9" cy="294.5" r="1.9"/>
							</g>
						</g>
					</g>
					<path fill="#F3A387" d="M428.1,295.6c-0.7,5.3-5.1,6.7-6.3,9.9c-1.2,3.1,3,5.4,6.3,0C431.2,300.3,428.1,295.6,428.1,295.6z"/>
					<path fill="#4E4F51" d="M450.3,281.5c0,0-2.8,5.2-10.6,3.3c-7.8-1.9-9,2.4-12.9,5.1c-3.8,2.7-12,3.8-12.6-7
						c-0.6-10.8,5.4-11.7,11.2-11.3c5.8,0.4,4.4-6.6,12.9-7.7c8.5-1.2,7.9,3.1,11.9,5.5s8.8-0.2,12,4.3c3.2,4.5,0.2,8.5,0,12.2
						c-0.2,3.7,5,5.9,5.4,11.6c0.4,5.7-4.8,3-5.7,8.8c-0.9,5.8-0.4,10.8-8.3,10.2c0,0,2.3-13.4,0-20.9
						C451.4,288.2,448.6,290.7,450.3,281.5z"/>
					<path fill="#F9D4A2" d="M452,308.9c0,0,9.3-12.7,12.7-4.2s-14.4,10.6-14.4,10.6L452,308.9z"/>
					<ellipse fill="#F3B4B9" cx="442.2" cy="303.2" rx="3.8" ry="3.1"/>
					<g>
						<path fill="#F3A387" d="M423.1,312.9c8,3.1,14.9,0,15,0l0.4,0.9c-0.3,0.1-7.4,3.3-15.8,0L423.1,312.9z"/>
					</g>
				</g>
				<path fill="#81481E" d="M410.9,531.8c0,0,5,8.2,3.9,9.8c-1.1,1.6-24.2,6.6-32.9,3.1c-8.8-3.5,18.6-10.2,18.6-10.2L410.9,531.8z"
					/>
				<path fill="#81481E" d="M358.6,534.4c0,0,1.9,9.4,0.3,10.5c-1.5,1.1-24.9-2.1-32-8.3s21-3.3,21-3.3L358.6,534.4z"/>
				<path fill="#F9D4A2" d="M520.9,297.9c0,0-3.2-4.6-3.3-6.5s2.8-2.8,2.8-2.8s-1.4-10.5-0.2-10.7c1.2-0.2,2.3,6.9,2.3,6.9
					s5.1-0.1,6.9,2.9c1.8,3,2.4,7.5,0.6,11.4L520.9,297.9z"/>
				<path fill="#414042" d="M468.5,428.5c0,0,1.5,28.6-15,35.7c-16.5,7.1-52.5,6.6-60.5,10.6s17.8,57,17.8,57l-10.4,2.7
					c0,0-52.3-47.4-31.4-76.2c13.1-18.1,60.4-29.7,60.4-29.7H468.5z"/>
				<path fill="#414042" d="M454.5,428.5c0,0,1.5,28.6-15,35.7c-16.5,7.1-52.5,6.6-60.5,10.6s-20.5,59.7-20.5,59.7l-10.7-1.1
					c0,0-1.8-54.6,7.2-75.1s60.4-29.7,60.4-29.7H454.5z"/>
				<path fill="#39B54A" d="M376.1,383.8c5.1-7.3,56.8,2,56.8,2v8.5C432.8,394.3,356.1,412.8,376.1,383.8z"/>
				<path fill="#F9D4A2" d="M432.8,385.8c0,0,6.2-0.8,10.7,0c4.5,0.8,13.4,6.2,11,8.2c-2.3,2-9.2,0.5-12.2,0s-9.6,0.3-9.6,0.3V385.8
					z"/>
			</g>
			<g>
				<g>
					<rect x="457.7" y="404.1" fill="#414042" width="7.4" height="141.8"/>
					<rect x="531.3" y="404.1" fill="#414042" width="7.4" height="141.8"/>
				</g>
				<rect x="280.7" y="396.2" fill="#A97C50" width="270" height="14.1"/>
				<rect x="280.7" y="396.2" fill="#C49A6C" width="165.3" height="14.1"/>
			</g>
		</g>
		<g>
			<g>
				<g>
					<g>
						<path fill="#414042" d="M727.2,545.8c-0.9,0-1.8-0.6-2.1-1.5l-29.8-77.6h-30.5l18.3,75.6c0.3,1.2-0.5,2.4-1.7,2.7
							c-1.2,0.3-2.4-0.5-2.7-1.7L659,462.3h39.3l31,80.5c0.4,1.2-0.1,2.5-1.3,2.9C727.7,545.8,727.4,545.8,727.2,545.8z"/>
					</g>
					<g>
						<path fill="#414042" d="M613.7,545.4c-0.3,0-0.5,0-0.8-0.2c-1.2-0.4-1.8-1.8-1.3-2.9l31-80.5h39.3l-19.7,81.2
							c-0.3,1.2-1.5,2-2.7,1.7c-1.2-0.3-2-1.5-1.7-2.7l18.3-75.6h-30.5L615.8,544C615.5,544.9,614.6,545.4,613.7,545.4z"/>
					</g>
				</g>
				<g>
					<path fill="#27AAE1" d="M735.8,379h-68.5c-2.6,0-5.1,0.6-7.4,1.8c-5.6,3-14.3,10.9-14.3,30.6c0,22.9,3,36.7-5.4,49.5
						c-12.5,19-50.4-2.4-62.7,13.8c-0.9,1.2,0,2.9,1.5,2.9h66.3c1,0,1.9-0.5,2.4-1.4c11.1-19,50.9,4.3,63.7-15.3
						c8.4-12.8,5.4-26.7,5.4-49.5C716.7,382.2,735.8,379,735.8,379z"/>
					<g>
						<path fill="#4F7FA4" d="M646.4,477.5c-0.3,0-0.7-0.1-1-0.2c-1.1-0.6-1.6-1.9-1-3c5.7-11.7,20-10.7,33.8-9.7
							c12.9,0.9,25.1,1.8,30.8-6.5c6.1-8.9,5.8-18.2,5.3-32.4c-0.1-4-0.3-8.6-0.3-13.5c0-29.4,20.8-33.1,21-33.1
							c1.2-0.2,2.4,0.6,2.6,1.9c0.2,1.2-0.6,2.4-1.9,2.6c-0.7,0.1-17.2,3.3-17.2,28.6c0,4.8,0.1,9.2,0.3,13.3
							c0.5,14.6,0.8,25.1-6.1,35.2c-7.2,10.5-21.3,9.4-34.9,8.4c-12.9-0.9-25-1.8-29.4,7.1C648.1,477,647.3,477.5,646.4,477.5z"/>
					</g>
				</g>
			</g>
			<g>
				<rect x="505.3" y="404.1" fill="#414042" width="7.4" height="141.8"/>
				<rect x="578.8" y="404.1" fill="#414042" width="7.4" height="141.8"/>
			</g>
			<g>
				<path fill="#F3A387" d="M668,428.5c0,0,1.5,28.6-15,35.7c-16.5,7.1-52.5,6.6-60.5,10.6S572,534.4,572,534.4l-10.7-1.1
					c0,0-1.8-54.6,7.2-75.1s60.4-29.7,60.4-29.7H668z"/>
				<path fill="#F06491" d="M678.4,333.8c16.1-8,35.5-17.2,39.8-25.3c4.3-8.1,9.4-44.3,9.4-44.3l9,1.1c0,0,0.1,41.7-5.7,58.7
					s-34.3,44.3-48.2,41C668.9,361.7,664.3,340.8,678.4,333.8z"/>
				<path fill="#F06491" d="M629.7,340.8c-14.3,7.1-39.6,33.5-39.8,45.9c-0.4,24,43.2-3.5,52.5-21.8
					C651.7,346.7,642.9,334.3,629.7,340.8z"/>
				<path fill="#F06491" d="M696.2,340.3c1.3-12-54.7-6.7-64.4,0.5c-9.7,7.2-12.4,60.6-4.7,87.7H682
					C682,428.5,692.5,374.3,696.2,340.3z"/>
				<path fill="#F9D4A2" d="M666.7,306.3l0,27.3l9.8,0c0,0-7.1,30.9-20,31.3s-14-28.3-14-28.3l8.5-2.5l1.9-21L666.7,306.3z"/>
				<g>
					<path fill="#F9D4A2" d="M632.5,287.7c0,0-2.1,27.1,1.7,37.2c3.8,10.2,27.9,7.6,36.8-20.5c8.9-28.1-6.8-32.8-21.2-32.8
						S633.2,280.6,632.5,287.7z"/>
					<ellipse fill="#F3B4B9" cx="634.5" cy="303.2" rx="3.8" ry="3.1"/>
					<g>
						<g>
							<g>
								<circle fill="#4E4F51" cx="653.8" cy="295.6" r="1.9"/>
							</g>
							<g>
								<circle fill="#4E4F51" cx="636.4" cy="294.5" r="1.9"/>
							</g>
						</g>
					</g>
					<path fill="#F3A387" d="M641.5,295.6c-0.7,5.3-5.1,6.7-6.3,9.9c-1.2,3.1,3,5.4,6.3,0C644.7,300.3,641.5,295.6,641.5,295.6z"/>
					<path fill="#F9D4A2" d="M665.5,308.9c0,0,9.3-12.7,12.7-4.2c3.4,8.5-14.4,10.6-14.4,10.6L665.5,308.9z"/>
					<ellipse fill="#F3B4B9" cx="655.6" cy="303.2" rx="3.8" ry="3.1"/>
					<g>
						<path fill="#F3A387" d="M636.5,312.9c8,3.1,14.9,0,15,0l0.4,0.9c-0.3,0.1-7.4,3.3-15.8,0L636.5,312.9z"/>
					</g>
					<path fill="#FFDE17" d="M661,290l-32.8-3c0,0,1-15,12.3-18.3s30.7,1.4,36,9.1c5.3,7.7,6.3,87.2,6.3,87.2h-18.5L661,290z"/>
				</g>
				<path fill="#F06491" d="M624.4,531.8c0,0,5,8.2,3.9,9.8c-1.1,1.6-24.2,6.6-32.9,3.1c-8.8-3.5,18.6-10.2,18.6-10.2L624.4,531.8z"
					/>
				<path fill="#F06491" d="M572,534.4c0,0,1.9,9.4,0.3,10.5c-1.5,1.1-24.9-2.1-32-8.3c-7.1-6.2,21-3.3,21-3.3L572,534.4z"/>
				<path fill="#F9D4A2" d="M727.6,264.2c0,0-3.2-4.6-3.3-6.5c-0.1-2,2.8-2.8,2.8-2.8s-1.4-10.5-0.2-10.7c1.2-0.2,2.3,6.9,2.3,6.9
					s5.1-0.1,6.9,2.9c1.8,3,2.4,7.5,0.6,11.4L727.6,264.2z"/>
				<path fill="#F9D4A2" d="M682,428.5c0,0,1.5,28.6-15,35.7c-16.5,7.1-52.5,6.6-60.5,10.6s17.8,57,17.8,57l-10.4,2.7
					c0,0-52.3-47.4-31.4-76.2c13.1-18.1,60.4-29.7,60.4-29.7H682z"/>
				<path fill="#F06491" d="M589.5,383.8c5.1-7.3,56.8,2,56.8,2v8.5C646.3,394.3,569.5,412.8,589.5,383.8z"/>
				<path fill="#F9D4A2" d="M646.3,385.8c0,0,6.2-0.8,10.7,0c4.5,0.8,13.4,6.2,11,8.2s-9.2,0.5-12.2,0s-9.6,0.3-9.6,0.3V385.8z"/>
				<path fill="#4C447A" d="M627.1,428.5c0,0-34.4,7.3-48.3,18.4c0,0,28.3,0.4,39.3,5.7c11.1,5.3,8.9,18.6,8.9,18.6
					s32.9-0.8,45.2-10.5c12.3-9.8,9.7-32.2,9.7-32.2H627.1z"/>
			</g>
			<g>
				<g>
					<rect x="671.2" y="404.1" fill="#414042" width="7.4" height="141.8"/>
					<rect x="744.7" y="404.1" fill="#414042" width="7.4" height="141.8"/>
				</g>
				<rect x="494.2" y="396.2" fill="#A97C50" width="270" height="14.1"/>
				<rect x="494.2" y="396.2" fill="#C49A6C" width="165.3" height="14.1"/>
			</g>
		</g>
	</g>
</g>
<g id="Text">
	<text transform="matrix(1 0 0 1 314.0225 207.1553)" fill="#FFFFFF" font-family="'Pacifico'" font-size="36.6626">lorem ipsum</text>
</g>
</svg>
