<?xml version="1.0" encoding="utf-8"?>
<!-- Generator: Adobe Illustrator 18.0.0, SVG Export Plug-In . SVG Version: 6.00 Build 0)  -->
<!DOCTYPE svg PUBLIC "-//W3C//DTD SVG 1.1//EN" "http://www.w3.org/Graphics/SVG/1.1/DTD/svg11.dtd">
<svg version="1.1" id="Layer_1" xmlns="http://www.w3.org/2000/svg" xmlns:xlink="http://www.w3.org/1999/xlink" x="0px" y="0px"
	 viewBox="0 0 1400 980" enable-background="new 0 0 1400 980" xml:space="preserve">
<g>
	<rect fill="#FFFCD9" width="1400" height="980"/>
	<rect x="0" opacity="0.45" fill="#173151" width="1228.2" height="870.7"/>
	<rect fill="#EAAE6E" width="1208.3" height="845.8"/>
	<rect fill="#D69A5F" width="1184.3" height="824"/>
	<rect x="0" fill="#173151" width="1158" height="798.3"/>
	<path fill="#1E3A59" d="M862.6,554.4c-38.5,0-76.9,0-115.4,0c7.3-9.1,11.7-20.7,11.7-33.1c0-3.6-0.4-7.2-1.1-10.6
		c21.1,0,42.3,0,63.4,0c29.1,0,53.4-24.3,53.4-53.4c0-10.7-3.3-20.8-8.9-29.2c1.7,0,3.4,0,5.1,0c29.1,0,53.4-24.3,53.4-53.4
		c0-29.1-24.3-53.4-53.4-53.4c-58,0-116,0-174.1,0c-1-13-6.7-24.8-15.5-33.7c39.8,0,79.5,0,119.3,0c29.1,0,53.4-24.3,53.4-53.4
		s-24.3-53.4-53.4-53.4c-62.6,0-125.3,0-187.9,0c7.5-9.2,12-20.8,12-33.4c0-29.1-24.3-53.4-53.4-53.4c-105.4,0-210.8,0-316.1,0
		c-48.5,0-97,0-145.4,0c-29.1,0-53.4,24.3-53.4,53.4c0,29.1,24.3,53.4,53.4,53.4c62.6,0,125.3,0,187.9,0c-7.5,9.2-12,20.8-12,33.4
		c0,14.5,6,27.8,15.7,37.5c-39.8,0-79.5,0-119.3,0c-29.1,0-53.4,24.3-53.4,53.4c0,9.9,2.8,19.2,7.6,27.2c-28.1,1.3-51,25-51,53.4
		c0,29.1,24.3,53.4,53.4,53.4c55.9,0,111.8,0,167.7,0c0.1,3,0.4,6,1.1,8.9c-21.1,0-42.3,0-63.4,0c-29.1,0-53.4,24.3-53.4,53.4
		c0,29.1,24.3,53.4,53.4,53.4c38.5,0,76.9,0,115.4,0c-7.3,9.1-11.7,20.7-11.7,33.1c0,29.1,24.3,53.4,53.4,53.4
		c105.4,0,210.8,0,316.1,0c48.5,0,96.9,0,145.4,0c29.1,0,53.4-24.3,53.4-53.4C916,578.7,891.7,554.4,862.6,554.4z"/>
	<g>
		<path fill="#FFFFFF" d="M395.1,402H113.7c-1.4,0-2.5-1.1-2.5-2.5V69.9c0-1,0.7-2,1.6-2.3c1-0.4,2.1-0.1,2.8,0.7L397,397.9
			c0.6,0.7,0.8,1.8,0.4,2.7C397,401.5,396.1,402,395.1,402z M116.2,397h273.5L116.2,76.7V397z"/>
	</g>
	<g>
		<path fill="#FFFFFF" d="M146.4,402.8c-1.4,0-2.5-1.1-2.5-2.5v-32.9H113c-1.4,0-2.5-1.1-2.5-2.5s1.1-2.5,2.5-2.5h33.4
			c1.4,0,2.5,1.1,2.5,2.5v35.4C148.9,401.7,147.8,402.8,146.4,402.8z"/>
	</g>
	<g>
		<path fill="#FFFFFF" d="M114.2,106.7c-0.1,0-0.1,0-0.2,0c-5.6,0-13.7-0.7-18.6-6.5c-0.9-1.1-0.8-2.6,0.3-3.5
			c1.1-0.9,2.6-0.8,3.5,0.3c2.7,3.2,7.4,4.7,14.8,4.7c0,0,0.1,0,0.1,0c8.9,0,16-1.5,21.7-4.5c6.8-3.6,11.6-9.9,12.4-16.4
			c0.2-1.4,1.4-2.3,2.8-2.2c1.4,0.2,2.3,1.4,2.2,2.8c-1.1,8.2-6.7,15.7-15.1,20.1C131.8,105,124,106.7,114.2,106.7z"/>
	</g>
	<g>
		<path fill="#FFFFFF" d="M339.2,425.5c-1.2,0-2.3-0.9-2.5-2.1c-1.1-7.4-2.4-16.7-0.6-25.5c2-9.7,7.4-18.1,13.3-26.7
			c2.4-3.4,5.3-7.7,9.2-11c4.4-3.7,9.5-5.6,14.3-5.2c1.4,0.1,2.4,1.3,2.3,2.7c-0.1,1.4-1.3,2.4-2.7,2.3c-4.7-0.3-8.7,2.4-10.7,4.1
			c-3.4,2.8-6,6.6-8.3,10c-5.8,8.4-10.7,16-12.5,24.8c-1.6,7.9-0.4,16.3,0.7,23.8c0.2,1.4-0.8,2.6-2.1,2.8
			C339.5,425.5,339.4,425.5,339.2,425.5z"/>
	</g>
	<g>
		<path fill="#FFFFFF" d="M69.9,244.2c-1.9,0-3.8-0.6-5.2-1.7c-0.3-0.2-0.5-0.5-0.7-0.8c-1.7-3-3-6.3-3.8-9.7
			c-0.9,1.9-2.1,3.7-3.6,5.2c-2.9,3-7.3,4.8-11.5,4.7c-3.3-0.1-6.2-1.5-8.2-3.8c-2.8-3.4-3.3-8.7-1.1-13c1.7-3.5,5-6.4,9.3-8.3
			c5.4-2.4,11.6-2.8,17.3-1.2c1.3,0.4,2.1,1.8,1.7,3.1c0,0.1-0.1,0.2-0.1,0.3c0,0.1,0,0.2,0,0.4c-0.5,6.7,1,13.6,4.1,19.5
			c1.3,0.7,2.9,0.5,4.1-0.1c1.3-0.6,2.7-1.8,2.8-3.5c0.1-1.4,1.3-2.4,2.6-2.3c1.4,0.1,2.4,1.3,2.3,2.6c-0.2,3.3-2.4,6.2-5.7,7.7
			C72.8,243.9,71.3,244.2,69.9,244.2z M55.4,219.6c-2.9,0-5.8,0.6-8.4,1.7c-3.2,1.4-5.6,3.5-6.8,6c-1.3,2.6-1.1,5.7,0.5,7.6
			c1.3,1.6,3.2,2,4.5,2c2.8,0.1,5.8-1.1,7.7-3.1c3.5-3.6,4.8-9.2,5.8-14C57.6,219.7,56.5,219.6,55.4,219.6z"/>
	</g>
	<g>
		<path fill="#FFFFFF" d="M226.8,444.4c-1.9,0-3.6-0.2-4.6-0.4c-1.3-0.2-2.3-1.4-2.1-2.7c0.4-3.6,0.8-7.2,1.4-10.9
			c-0.3-0.3-0.5-0.6-0.6-1c-0.3-1.2,0.2-2.3,1.2-2.9c0.9-5.3,2-10.5,3.2-15.7c0.3-1.3,1.7-2.2,3-1.8c1.3,0.3,2.2,1.7,1.8,3
			c-1.1,4.5-2.1,9.1-2.9,13.7c2.5,0.1,4.9,0.9,6.7,2.3c3.7,2.9,4.9,8.2,2.6,11.9C234.4,443.6,230.3,444.4,226.8,444.4z M225.4,439.3
			c3.7,0.3,6-0.4,7-2c0.9-1.5,0.3-4-1.4-5.3c-1.2-0.9-2.8-1.3-4.5-1.3C226.1,433.6,225.7,436.4,225.4,439.3z"/>
	</g>
	<g>
		<path fill="#FFFFFF" d="M285,202.4c-2,0-4.1-0.2-6.4-0.8c-2.2-0.5-4.8-1.2-6.6-3.2c-2.6-2.9-2.4-7-2.3-9.4
			c0.1-3.3,0.5-11.1,6.2-14.1c1.9-1,4-1.2,5.6-1.3c2-0.1,4.5,0,6.6,1.5c1.4,1,2.4,2.6,2.6,4.3c0.2,1.5-0.2,2.9-1.1,3.9
			c-0.3,0.4-0.7,0.6-1.2,0.8c-1.5,0.5-3,0.5-4.5,0.2c-1.5,1.8-2.7,3.9-3.5,6.2c-0.5,1.3-1.9,2-3.2,1.5c-1.3-0.5-2-1.9-1.5-3.2
			c1.2-3.3,3.1-6.5,5.6-9.1c0.7-0.8,1.9-1,2.9-0.5c0.4,0.2,0.8,0.3,1.3,0.3c-0.1-0.1-0.2-0.2-0.3-0.3c-0.9-0.6-2.3-0.6-3.5-0.6
			c-1.2,0.1-2.5,0.2-3.5,0.7c-2.8,1.5-3.4,5.9-3.6,9.9c-0.1,2.3-0.1,4.6,1,5.8c0.9,0.9,2.5,1.3,4,1.7c2.9,0.6,9.9,1.7,12.2-2.2
			c0.7-1.2,2.3-1.5,3.4-0.8c1.2,0.7,1.5,2.3,0.8,3.4C294.1,200.7,290.2,202.4,285,202.4z"/>
	</g>
	<g>
		<path fill="#FFFFFF" d="M680.4,214.4H396.6c-1.1,0-2-0.7-2.4-1.7c-0.3-1,0-2.2,0.9-2.8L619.9,44.1c1.1-0.8,2.7-0.6,3.5,0.5
			c0.8,1.1,0.6,2.7-0.5,3.5L404.2,209.4h276.2c1.4,0,2.5,1.1,2.5,2.5S681.8,214.4,680.4,214.4z"/>
	</g>
	<g>
		<path fill="#FFFFFF" d="M470.6,244.7c-1.4,0-2.5-1.1-2.5-2.5c-0.1-3.9,0-8,0-11.8c0.1-13.6,0.3-27.7-4.2-40.3
			c-6.2-17.4-21.2-31.2-39.1-35.8c-1.3-0.3-2.1-1.7-1.8-3c0.3-1.3,1.7-2.1,3-1.8c19.5,5,35.8,20,42.6,39c4.8,13.5,4.7,28,4.5,42.1
			c0,3.8-0.1,7.8,0,11.7C473.1,243.5,472,244.6,470.6,244.7C470.6,244.7,470.6,244.7,470.6,244.7z"/>
	</g>
	<g>
		<path fill="#FFFFFF" d="M604.3,145.6c-0.1,0-0.2,0-0.2,0l-11.1-1c-0.7-0.1-1.4-0.4-1.8-1c-0.4-0.6-0.6-1.3-0.4-2
			c1.2-5.6,5.1-10.5,10.2-13c1.2-0.6,2.7-0.1,3.3,1.2c0.6,1.2,0.1,2.7-1.2,3.3c-2.9,1.4-5.2,3.9-6.6,6.8l8,0.7
			c1.4,0.1,2.4,1.3,2.3,2.7C606.7,144.6,605.6,145.6,604.3,145.6z"/>
	</g>
	<g>
		<path fill="#FFFFFF" d="M605.8,153.4c-1.2,0-2.2-0.8-2.5-2c-1-4.8-1.2-9.8-0.6-14.7c0.1-1.4,1.4-2.4,2.8-2.2
			c1.4,0.1,2.4,1.4,2.2,2.8c-0.5,4.4-0.3,8.9,0.6,13.2c0.3,1.4-0.6,2.7-2,2.9C606.1,153.4,606,153.4,605.8,153.4z"/>
	</g>
	<g>
		<path fill="#FFFFFF" d="M617.5,153.1c-1.1,0-2.2-0.8-2.4-1.9c-0.3-1.3,0.5-2.7,1.9-3l7.5-1.8c-0.4-0.9-1.1-1.7-1.8-2.2
			c-1.1-0.8-2.8-1.4-4.3-0.7c-0.8,0.4-1.8,0.3-2.5-0.2c-0.7-0.5-1.1-1.4-1.1-2.3l0.9-9.3c0.1-1.3,1.2-2.3,2.5-2.3
			c2.5,0,4.5,0.6,6.4,1.1c1,0.3,2,0.5,3,0.7c1.4,0.3,2.2,1.6,2,2.9c-0.3,1.4-1.6,2.2-2.9,2c-1.2-0.2-2.3-0.5-3.3-0.8
			c-1-0.3-2-0.5-2.9-0.7l-0.3,3.5c1.9,0.1,3.8,0.7,5.4,1.9c2.9,2,4.5,5.3,4.1,8.5c-0.1,1.1-0.9,1.9-1.9,2.2l-9.7,2.3
			C617.9,153,617.7,153.1,617.5,153.1z"/>
	</g>
	<g>
		<path fill="#FFFFFF" d="M646.2,136.2C646.2,136.2,646.1,136.2,646.2,136.2l-7.3-0.1c-0.7,0-1.3-0.3-1.8-0.8
			c-1.4-1.5-2.1-3.5-2-5.6c0.1-2.1,1-4.1,2.5-5.4c1.4-1.2,3.2-1.9,5.1-1.9c2.4,0,4.5,1,6,2.7c0.4,0.5,0.6,1.2,0.6,1.8l-0.6,7.1
			C648.6,135.2,647.5,136.2,646.2,136.2z M640.3,131.1l3.6,0.1l0.3-3.5c-1-0.5-2.5-0.4-3.2,0.3c-0.5,0.4-0.8,1.1-0.8,1.9
			C640.1,130.3,640.1,130.7,640.3,131.1z"/>
	</g>
	<path opacity="0.45" fill="#173151" d="M1279.6,586l-12.2-25.2l-103-213.3H1086l0.1-0.3l-11.4-25.7l-3.6-8l-0.1,0.1v-0.1h-13.3
		v-7.6c0.5-0.3,0.9-0.5,1.4-0.8c2.1-1.2,4.1-2.6,6-4.2c13.1-10.3,23.7-27.1,29.8-38c3.7-6.7,5.6-14.1,5.6-21.7v-12.4
		c4,0.4,9.6,0.2,12.7-3.4c3.6-4.2,7-25.2,2.1-31.1c-2.9-3.4-7.8-2.3-11.4-0.7c-0.8,0.4-1.6,0.8-2.3,1.1c0.4-7.8,0.9-17.4,1.3-26.9
		c0.6-16.3,0.9-32.2,0.1-37.4c0,0,12.1-11.6,14.6-23.2c0,0-13.7,1.2-25-4.3c-1.1-0.5-2.2-1.1-3.2-1.8c-2.8-1.8-7.2-3.3-12.5-4.6
		c-30.5-7.2-93.7-5.7-98,4.6c0,0-17.5-8.1-28.7,10.5c-3,5-3.7,21.1-3.4,39.1c0,1.3,0,2.6,0.1,3.9c0,1.8,0.1,3.6,0.2,5.4
		c0,0.9,0.1,1.8,0.1,2.6c0.4,10.4,1,20.7,1.6,29.3c0,0.5,0.1,1,0.1,1.5c0,0.4,0,0.8,0.1,1.1c-1.9-1-4.5-2.1-7.1-2.4
		c-0.1,0-0.1,0-0.2,0c-1.1-0.1-2.2,0-3.2,0.3c-1,0.3-2,0.9-2.8,1.9c-1.5,1.8-2.2,4.9-2.4,8.6c-0.5,8.4,2,19.6,4.5,22.5
		c0.7,0.8,1.5,1.5,2.4,1.9c3.1,1.7,7.2,1.7,10.3,1.4v12.4c0,2.5,0.2,4.9,0.6,7.4c0.8,5,2.5,9.9,5,14.4c3.8,7,9.5,16.2,16.5,24.7
		c2.7,3.3,5.6,6.4,8.6,9.3c3.7,3.5,7.7,6.6,11.9,8.9v7.8h-11.3l-0.6,1.4l-2.9,6.6l-0.6,1.3l-10.4,23.5l-0.4,0.9l0.1,0.3h-78.3v0.8
		l-9.8,8.9l-2.1,1.9l-98.9,89.8l-35.4-25.6l3.9-7.4l-18.4-13.7l-12.9-9.6l-10.1,13.6l-9.2-6.8l-5.9-4.4l-5-3.7l-49.5-36.9l-1.5-18.2
		l-0.4-5.2l-10.5-9l-31.5-27.1c0,0-0.9,0.9-2,2.4c-1.1,1.4-2.4,3.1-3.5,5l-14.3-19.4L461.4,132.9l-2.3,1.7l-4.7,3.4l114.4,155.5
		l15.5,21.1l-17.5,23l-0.8,1l-1,14.6l32.2,24.4l13.7,3.9l47.2,45.4l5.5,5.3l12.6,12.1l-5.2,6.9l-3.6,4.8l-8,10.7l42.3,32.5l3.1-5.9
		l66.8,49l104.8-82.8l11.9-9.4V980h105.2V879.2c0-18.1,14.7-32.7,32.7-32.7c0.1,0,0.1,0,0.2,0v0c7.9,0,15.1,2.8,20.7,7.5
		c7.3,6,11.9,15.1,11.9,25.2V980h105.2V807.5l25.5-49.9l36.2-69.7l24.5,10.7l22-48.6l-17.2-4.5L1279.6,586z M1164.4,509.5l35.5,79.7
		l-5.7,17.2l-3.7,11.2l-2.3,6.9l-0.9,2.8l-6.1-1.6l-8,18.3l-7.6,17.5l16.1,7l-17.4,40.6V509.5z"/>
	<g>
		<polygon fill="#8AA7B6" points="969.8,287.5 1059.2,287.5 1059.2,322.8 968.9,322.8 		"/>
		
			<rect x="524.8" y="82.2" transform="matrix(0.8055 -0.5926 0.5926 0.8055 -28.9776 356.8443)" fill="#D69A5F" width="8.6" height="280.6"/>
		<rect x="876.6" y="321.5" fill="#D2E8F4" width="275.9" height="386.8"/>
		<rect x="876.6" y="321.5" fill="#B9DBEB" width="138.5" height="386.8"/>
		<polygon fill="#E87F6A" points="1023.4,368.3 1036.4,355.9 1014.6,340.9 992.7,355.9 1005.7,368.3 988.1,626.8 1014.6,654.1 
			1041,626.8 		"/>
		<path fill="#24506D" d="M1152.5,708.3V980h-105.2V853.2c0-9-3.7-17.2-9.6-23.1c-5.9-5.9-14-9.5-23-9.6h-0.2
			c-18.1,0-32.7,14.7-32.7,32.7V980H876.6V708.3H1152.5z"/>
		<path fill="#1F4964" d="M1014.7,708.3v112.2c0,0-0.1,0-0.2,0c-18.1,0-32.7,14.7-32.7,32.7V980H876.6V708.3H1014.7z"/>
		<g>
			<rect x="876.6" y="679.7" fill="#112F3F" width="275.9" height="28.6"/>
			<path fill="#ACA9AE" d="M1032.9,676h-36.7c-4.4,0-8,3.6-8,8v19.9c0,4.4,3.6,8,8,8h36.7c4.4,0,8-3.6,8-8v-19.9
				C1040.9,679.6,1037.3,676,1032.9,676z"/>
			<g>
				<g>
					<rect x="1075.9" y="677.8" fill="#24506D" width="9.2" height="34.8"/>
					<rect x="1129.9" y="677.8" fill="#24506D" width="9.2" height="34.8"/>
				</g>
				<g>
					<g>
						<g>
							<rect x="890" y="677.8" fill="#1F4964" width="9.2" height="34.8"/>
						</g>
						<g>
							<rect x="944" y="677.8" fill="#1F4964" width="9.2" height="34.8"/>
						</g>
					</g>
				</g>
			</g>
		</g>
		<path fill="#FFD391" d="M703.9,388.3l-80.5-60l-2-23.4l-41.9-36.1c0,0-8.8,9.8-7.8,14.6c1,4.9,1,4.9,1,4.9l-18.5,24.4l-1,14.6
			l32.2,24.4l13.7,3.9l75.1,72.3L703.9,388.3z"/>
		<polygon fill="#D2E8F4" points="877.5,321.5 765.8,422.9 702.2,376.9 657.3,441.3 759.9,516.5 880.8,420.9 		"/>
		<polygon fill="#FFD391" points="1181.9,614.7 1140,712.5 1119.4,723.9 1150.2,786.2 1177.9,731.7 1230,631.6 		"/>
		<polygon fill="#B9DBEB" points="1152.5,321.5 1267.7,560.1 1233.9,643.3 1170.1,617.3 1188,563.3 1148,473.6 		"/>
		<polygon fill="#E3EFF5" points="690,473.4 647.7,440.9 703,366.6 734.3,389.9 		"/>
		<polygon fill="#BBE0F3" points="1260.7,624 1238.7,672.7 1153.7,635.7 1169.3,599.9 		"/>
		<g>
			<g>
				<path fill="#F4BF88" d="M939.6,170c0,0-10.9-7.6-15.8-1.8c-5,5.9-1.5,26.9,2.1,31.1c5,5.9,17,2.6,17,2.6L939.6,170z"/>
				<path fill="#F4BF88" d="M1087.6,170c0,0,10.9-7.6,15.8-1.8c5,5.9,1.5,26.9-2.1,31.1c-5,5.9-17,2.6-17,2.6L1087.6,170z"/>
			</g>
			<rect x="981" y="274.5" fill="#F4BF88" width="64.9" height="66.4"/>
			<path fill="#FFD391" d="M1030.4,284.2h-33.7c-23.3,0-43.4-30.5-52.7-47.4c-3.7-6.7-5.6-14.1-5.6-21.7v-92c0-19.9,16.1-36,36-36
				h78.2c19.9,0,36,16.1,36,36v92c0,7.6-1.9,15.1-5.6,21.7C1073.8,253.8,1053.7,284.2,1030.4,284.2z"/>
			<g>
				<path fill="#2C2D33" d="M982.4,164.8c-3.4,0-6.1,2.8-6.1,6.1v7.9c0,3.4,2.8,6.1,6.1,6.1s6.1-2.8,6.1-6.1v-7.9
					C988.5,167.5,985.8,164.8,982.4,164.8z"/>
				<path fill="#2C2D33" d="M1044.8,164.8c-3.4,0-6.1,2.8-6.1,6.1v7.9c0,3.4,2.8,6.1,6.1,6.1c3.4,0,6.1-2.8,6.1-6.1v-7.9
					C1050.9,167.5,1048.1,164.8,1044.8,164.8z"/>
			</g>
			<path fill="#76262D" d="M938.5,187c0,0,4.8-40.1,14.9-46.7c10.1-6.6,6.8-31.6,6.8-31.6s37.2,26.1,111.4,25
				c0,0,5.7,32.1,17.3,51.3c0,0,4.3-68.6,2.2-80.7c0,0,12.1-11.6,14.6-23.2c0,0-16.5,1.4-28.2-6.1C1058.4,63.1,972,63,967,75.1
				c0,0-17.5-8.1-28.7,10.5C930.3,98.8,938.5,187,938.5,187z"/>
			<path opacity="0.69" fill="#FFFFFF" d="M990.9,156.5h-36.5c-5.4,0-9.8,4.4-9.8,9.8v18.9c0,5.4,4.4,9.8,9.8,9.8h36.5
				c5.4,0,9.8-4.4,9.8-9.8v-18.9C1000.7,160.9,996.3,156.5,990.9,156.5z"/>
			<g opacity="0.69">
				<polygon fill="#FFFFFF" points="965.9,156.5 961.4,156.5 982.2,195 985.7,195 				"/>
				<path fill="#FFFFFF" d="M971.1,195h7.8L958,156.5h-3.7c-1.1,0-2.2,0.2-3.2,0.6L971.1,195z"/>
			</g>
			<g opacity="0.69">
				<polygon fill="#FFFFFF" points="1055.7,156.5 1051.3,156.5 1072,195 1075.6,195 				"/>
				<path fill="#FFFFFF" d="M1060.9,195h7.8l-20.8-38.5h-3.7c-1.1,0-2.2,0.2-3.2,0.6L1060.9,195z"/>
			</g>
			<path opacity="0.69" fill="#FFFFFF" d="M1072.5,156.5H1036c-5.4,0-9.8,4.4-9.8,9.8v18.9c0,5.4,4.4,9.8,9.8,9.8h36.5
				c5.4,0,9.8-4.4,9.8-9.8v-18.9C1082.3,160.9,1077.9,156.5,1072.5,156.5z"/>
			<path fill="#2C2D33" d="M1075.9,152.6c-1.2-0.3-2.4-0.5-3.7-0.5h-35.3c-8.2,0-14.9,6.7-14.9,14.9h-16.7c0-8.2-6.7-14.9-14.9-14.9
				h-35.3c-3,0-5.8,0.9-8.1,2.4c-0.7,0.5-1.4,1-2,1.5v0c-3,2.7-4.9,6.7-4.9,11v18.1c0,2.5,0.6,4.8,1.7,6.8c0.1,0.1,0.1,0.3,0.2,0.4
				c2.6,4.6,7.5,7.7,13.1,7.7h35.3c8.3,0,14.9-6.7,14.9-14.9v-9.8h16.7v9.8c0,8.3,6.7,14.9,14.9,14.9h35.3c5.6,0,10.5-3.1,13.1-7.7
				c1.2-2.1,1.9-4.6,1.9-7.3v-18.1C1087.2,160.1,1082.4,154.2,1075.9,152.6z M999.4,185.2c0,5-4.1,9.1-9.1,9.1h-35.3
				c-2.4,0-4.6-0.9-6.2-2.5c-1.8-1.6-2.9-4-2.9-6.6v-18.1c0-1.7,0.5-3.2,1.2-4.5c1.1-1.9,2.8-3.3,4.8-4c1-0.3,2-0.5,3-0.5h35.3
				c5,0,9.1,4.1,9.1,9.1V185.2z M1081.3,185.2c0,4-2.7,7.5-6.3,8.7c-0.9,0.3-1.8,0.4-2.8,0.4h-35.3c-5,0-9.1-4.1-9.1-9.1v-18.1
				c0-5,4.1-9.1,9.1-9.1h35.3c2.3,0,4.4,0.8,5.9,2.2c1.9,1.7,3.1,4.1,3.1,6.9V185.2z"/>
		</g>
		<g>
			<polygon fill="#E3EFF5" points="969.8,287.5 1014.6,340.9 979.4,371.6 954.8,321.3 			"/>
			<polygon fill="#E3EFF5" points="1059.3,287.5 1014.6,340.9 1049.7,371.6 1074.3,321.3 			"/>
		</g>
		<g>
			<g>
				<polygon fill="#76262D" points="1012.1,223.9 985.4,232.4 980.8,242.7 990.4,241 992.9,237.5 1011.6,231.9 				"/>
				<polygon fill="#76262D" points="1015.1,223.9 1041.8,232.4 1046.3,242.7 1036.7,241 1034.2,237.5 1015.6,231.9 				"/>
			</g>
		</g>
		<path fill="#F15B42" d="M1033.1,239.4h-39c-1.6,0-2.6,1.9-1.6,3.1c3.4,4.2,11.6,7.2,21.1,7.2c9.6,0,17.7-3,21.1-7.2
			C1035.7,241.2,1034.7,239.4,1033.1,239.4z"/>
		<polygon fill="#76262D" points="958.2,149.8 963.6,144.6 997.1,139.4 995.7,147.2 964.8,148.8 957.8,151.8 		"/>
		<polygon fill="#76262D" points="1067.9,149.8 1062.5,144.6 1029,139.4 1030.4,147.2 1061.3,148.8 1068.3,151.8 		"/>
		<polygon fill="#1F4964" points="1118.2,719.7 1151.5,788.3 1145.5,802.9 1112.5,720.4 		"/>
		<rect x="1054.8" y="389.6" fill="#112F3F" width="8.4" height="46.4"/>
		<rect x="1066.9" y="389.6" fill="#112F3F" width="8.4" height="46.4"/>
		<rect x="1047.3" y="412.5" fill="#B9DBEB" width="67.9" height="83.3"/>
	</g>
</g>
</svg>
